# xmcd
#
# Track frame offsets: 
#        187
#        21247
#        37195
#        68212
#        87750
#        106392
#        134167
#        147925
#        162570
#        196617
#
# Disc length: 3059 seconds
#
# Revision: 2
# Processed by: cddbd v1.5.2PL0 Copyright (c) Steve Scherf et al.
# Submitted via: ExactAudioCopyFreeDBPlugin 1.0
#
DISCID=900bf10a
DTITLE=Mike Dugan and The Blues Mission - Blues From The Rust Belt
DYEAR=1996
DGENRE=Blues
TTITLE0=Out On The Load
TTITLE1=Life In The Rust Belt
TTITLE2=Dark Factory
TTITLE3=Livin' the Blues
TTITLE4=There's No Talkin' to Ya
TTITLE5=Blue Eternity (Here We Go Again)
TTITLE6=The Stumble
TTITLE7=I Mean Business
TTITLE8=Roller Coaster Love
TTITLE9=Rust Belt Blues
EXTD=
EXTT0=
EXTT1=
EXTT2=
EXTT3=
EXTT4=
EXTT5=
EXTT6=
EXTT7=
EXTT8=
EXTT9=
PLAYORDER=
